PathFileType	4	(X/Y/Z)	./resultDataOpenSim/trcMotMarkerGrf/sub10/qtm-04-08.trc
DataRate	CameraRate	NumFrames	NumMarkers	Units	OrigDataRate	OrigDataStartFrame	OrigNumFrames
250.000000	250.000000	12	24	m	250.000000	136	541
Frame#	Time	L.Toe.Tip			R.Toe.Tip			L.Ankle.Lat			R.Ankle.Lat			L.Ankle.Med			R.Ankle.Med			L.Heel			R.Heel			L.Knee.Lat			R.Knee.Lat			L.Knee.Med			R.Knee.Med			L.Thigh.Upper			R.Thigh.Upper			L.ASIS			R.ASIS			V.Sacral			L.Acromium			R.Acromium			C7			L.Elbow			R.Elbow			L.Wrist.Lat			R.Wrist.Lat
		X1	Y1	Z1	X2	Y2	Z2	X3	Y3	Z3	X4	Y4	Z4	X5	Y5	Z5	X6	Y6	Z6	X7	Y7	Z7	X8	Y8	Z8	X9	Y9	Z9	X10	Y10	Z10	X11	Y11	Z11	X12	Y12	Z12	X13	Y13	Z13	X14	Y14	Z14	X15	Y15	Z15	X16	Y16	Z16	X17	Y17	Z17	X18	Y18	Z18	X19	Y19	Z19	X20	Y20	Z20	X21	Y21	Z21	X22	Y22	Z22	X23	Y23	Z23	X24	Y24	Z24

136	0.54	-0.49094715	0.077626129	-0.11931481	-0.75527352	0.040112912	0.032691392	-0.62124161	0.10792052	-0.12995147	-0.90180842	0.051067326	0.051153318	-0.60380685	0.12378461	-0.046156892	-0.86887827	0.081556115	-0.026810752	-0.68174921	0.075005116	-0.07894793	-0.9431035	0.029437968	-0.0051599674	-0.54107121	0.48863238	-0.13887811	-0.79991898	0.44234079	0.11323095	-0.52656901	0.46264259	-0.019839768	-0.77766312	0.44875214	-0.013162181	-0.70757711	0.82608917	-0.19401653	-0.78256175	0.85926622	0.18097089	-0.66953773	0.93343426	-0.12214455	-0.69687201	0.94278687	0.12130999	-0.88213191	0.95798106	-0.03113233	-0.7086639	1.4131104	-0.14993571	-0.73708683	1.4028669	0.17332227	-0.80442774	1.4398257	-1.7798713e-05	-0.87241323	1.1224973	-0.25289967	-0.77907546	1.0466883	0.21601633	-0.76401491	0.89667714	-0.25840131	-0.60212026	0.88663867	0.2763831
137	0.544	-0.47485149	0.077374687	-0.11536609	-0.75527421	0.040140887	0.03265015	-0.60573878	0.10508008	-0.12785371	-0.90178009	0.051089755	0.051086162	-0.58944975	0.12206048	-0.043965183	-0.86881383	0.081519428	-0.026880581	-0.66577907	0.071231295	-0.07706702	-0.94311839	0.029478128	-0.005170863	-0.53488439	0.48809467	-0.13826513	-0.79830401	0.44211774	0.11330792	-0.52088594	0.46267339	-0.01883297	-0.77621397	0.44827551	-0.013166699	-0.70199196	0.82583689	-0.19364156	-0.77869379	0.8588324	0.18110647	-0.66445856	0.93301415	-0.12173074	-0.69269829	0.94227307	0.12171222	-0.87746435	0.95789151	-0.029669323	-0.7040989	1.4126137	-0.1494939	-0.73262167	1.4023146	0.17367061	-0.79989556	1.4392948	0.00034672282	-0.86814404	1.1223636	-0.25241633	-0.77287082	1.0457911	0.21639603	-0.76042007	0.89622449	-0.25809823	-0.59376381	0.8876303	0.27579755
138	0.548	-0.45888223	0.076953191	-0.11134737	-0.75530407	0.040109352	0.032580168	-0.59018897	0.10234633	-0.12574748	-0.90173093	0.051109006	0.051020631	-0.57513624	0.12041523	-0.041819973	-0.86874515	0.081487044	-0.026977958	-0.65006944	0.067762385	-0.075476296	-0.94313251	0.029519466	-0.0051924818	-0.52871183	0.48741534	-0.13768009	-0.7966429	0.44186101	0.11337635	-0.51552362	0.46250201	-0.018039971	-0.77438899	0.44787063	-0.013007173	-0.69638556	0.82552923	-0.19326802	-0.77476875	0.85835243	0.18123284	-0.65903243	0.93254944	-0.12123564	-0.68849058	0.94173748	0.12209676	-0.87264557	0.95770186	-0.028250972	-0.69952278	1.4120725	-0.14907085	-0.72815389	1.4017107	0.17401678	-0.79536645	1.4387263	0.00068542682	-0.86384925	1.1221681	-0.25194821	-0.76665561	1.0448557	0.21676311	-0.75683136	0.89571433	-0.25780793	-0.58545168	0.88859801	0.27518126
139	0.552	-0.44302581	0.076355706	-0.10724164	-0.75534997	0.040042751	0.032492029	-0.57462912	0.099718742	-0.12364779	-0.9016753	0.051124502	0.050959283	-0.56088007	0.1188512	-0.039733013	-0.86866408	0.081456009	-0.027089256	-0.63457256	0.0645916	-0.074127416	-0.94314578	0.029563181	-0.0052254238	-0.52261303	0.4865807	-0.13713096	-0.79499483	0.44156868	0.11344803	-0.51044392	0.46213423	-0.017433781	-0.77235613	0.44749168	-0.012775522	-0.69076794	0.82516506	-0.19288988	-0.77079854	0.85784083	0.18135533	-0.65337992	0.93204417	-0.12068504	-0.68423647	0.94118851	0.12247263	-0.86736847	0.9569765	-0.027846324	-0.69493156	1.4114877	-0.14866378	-0.7236974	1.4010559	0.17436501	-0.79083684	1.4381224	0.0010163975	-0.85953755	1.1219038	-0.25150985	-0.76043211	1.0438825	0.21712043	-0.75324056	0.89514325	-0.25752591	-0.57715937	0.8895413	0.27453386
140	0.556	-0.42725486	0.075597078	-0.10301736	-0.7553849	0.039973001	0.032406384	-0.5590784	0.097205374	-0.12156379	-0.90162503	0.051134023	0.050899699	-0.54669176	0.117344	-0.037739485	-0.86857475	0.081422646	-0.027203097	-0.61923388	0.061681828	-0.073050511	-0.94315762	0.029610397	-0.0052622175	-0.51665428	0.48559456	-0.13662763	-0.79338534	0.44124107	0.11352304	-0.50553755	0.46158371	-0.016927742	-0.77036529	0.44706927	-0.012605087	-0.68516794	0.82473759	-0.19250307	-0.76678766	0.8573043	0.18147078	-0.64778246	0.93149378	-0.12015544	-0.67994397	0.94062602	0.12284329	-0.86171517	0.95575568	-0.028523379	-0.69032351	1.4108595	-0.1482684	-0.71924038	1.4003506	0.17470767	-0.78630431	1.4374823	0.0013455671	-0.85520417	1.1215753	-0.25108787	-0.75420383	1.042873	0.217468	-0.74963201	0.89451704	-0.25725142	-0.56888349	0.89045591	0.2738596
141	0.56	-0.41155494	0.074693143	-0.09865276	-0.75538558	0.039923105	0.032343449	-0.54355312	0.094806972	-0.11950771	-0.90158575	0.051137295	0.05083659	-0.53256833	0.11586321	-0.035877582	-0.86848364	0.081386837	-0.02731297	-0.60405013	0.059023028	-0.072276541	-0.94316719	0.029663735	-0.0052981876	-0.51086704	0.48447033	-0.13616817	-0.79175219	0.44088967	0.11359589	-0.50072222	0.46085648	-0.016458053	-0.76848429	0.44658607	-0.012529279	-0.67961527	0.8242407	-0.19210703	-0.76272069	0.85673392	0.18155719	-0.64242134	0.93089178	-0.11969831	-0.67562485	0.94004432	0.1232096	-0.85616633	0.9544598	-0.02953391	-0.68568838	1.4101866	-0.14788225	-0.71476075	1.3995978	0.17503801	-0.78176634	1.4368021	0.0016682473	-0.85084441	1.1211879	-0.25066072	-0.74797377	1.0418264	0.21780092	-0.74600204	0.8938426	-0.25699073	-0.56063816	0.89133896	0.27316529
142	0.564	-0.39594174	0.073652799	-0.094154149	-0.75535157	0.039894691	0.032308048	-0.52806268	0.092527225	-0.11749244	-0.90155746	0.05113735	0.050766141	-0.51850258	0.11441246	-0.034152937	-0.86839042	0.081350064	-0.027420277	-0.58897835	0.056627327	-0.071645761	-0.94317393	0.029725485	-0.0053347257	-0.50525531	0.48321275	-0.13573976	-0.79000191	0.44053101	0.11365646	-0.4959611	0.45994895	-0.015996025	-0.76662716	0.44607001	-0.012495229	-0.67410379	0.82367456	-0.19169987	-0.75856307	0.85610752	0.18157176	-0.6372537	0.93023661	-0.11930219	-0.67128539	0.93943396	0.12357277	-0.85093643	0.95335308	-0.030285627	-0.68100783	1.4094704	-0.14750514	-0.71024493	1.398803	0.17535622	-0.77721992	1.436079	0.0019810573	-0.8464721	1.1207409	-0.2502192	-0.74174372	1.0407414	0.21811695	-0.74235848	0.8931184	-0.25674461	-0.55243777	0.8921901	0.27245283
143	0.568	-0.38045005	0.072494162	-0.089544028	-0.75529731	0.039873503	0.032291014	-0.51262672	0.090381506	-0.11552902	-0.9015318	0.051139807	0.050689025	-0.50450552	0.11304346	-0.032520414	-0.86828743	0.081313068	-0.027533781	-0.57392899	0.05449274	-0.070914781	-0.9431773	0.029795647	-0.0053767759	-0.49981184	0.48181614	-0.13532571	-0.78811821	0.44016175	0.11369241	-0.49123508	0.45885493	-0.015528161	-0.76470647	0.44555	-0.012455974	-0.66856362	0.82304284	-0.19127495	-0.75427444	0.85540147	0.18146688	-0.63209251	0.92953133	-0.11891231	-0.66692651	0.93878594	0.12393377	-0.84571844	0.95243336	-0.030634343	-0.67628088	1.408718	-0.14713907	-0.70569808	1.3979717	0.17566781	-0.77266248	1.435312	0.0022885966	-0.84212489	1.1202364	-0.24976855	-0.73551758	1.0396221	0.21842289	-0.7387085	0.89234102	-0.25650474	-0.54428638	0.89300854	0.27172029
144	0.572	-0.36511758	0.071256139	-0.084840306	-0.75523586	0.039838916	0.032280481	-0.49727817	0.088382915	-0.11362164	-0.90149202	0.051151298	0.050610078	-0.49066176	0.11180062	-0.030952738	-0.86816444	0.081275581	-0.02766199	-0.5588909	0.0525939	-0.07001157	-0.94317573	0.029874358	-0.0054297012	-0.49450628	0.48027867	-0.13490825	-0.78615722	0.43975919	0.11370002	-0.48652583	0.45757397	-0.015043997	-0.76269873	0.44503727	-0.012414886	-0.66290048	0.82234977	-0.19081966	-0.74981668	0.85459981	0.18120193	-0.626722	0.92878286	-0.11846381	-0.66255131	0.93810078	0.12429357	-0.84014978	0.95164065	-0.030620568	-0.67155418	1.4079331	-0.14678566	-0.70113603	1.3971048	0.17597501	-0.76809416	1.434498	0.0025966228	-0.83784872	1.1196869	-0.24932352	-0.72930339	1.0384767	0.21872758	-0.735051	0.89151324	-0.25626703	-0.53618232	0.89379312	0.27096667
145	0.576	-0.34998588	0.069987048	-0.080054442	-0.75517504	0.039770421	0.032268255	-0.48204199	0.086532796	-0.11176177	-0.90141748	0.051180533	0.05053462	-0.47714447	0.11067053	-0.029509681	-0.8680148	0.08123641	-0.027805597	-0.54394617	0.050905016	-0.069041983	-0.94316776	0.029964735	-0.0054970218	-0.48928398	0.4786119	-0.13447382	-0.78416212	0.43930565	0.11368824	-0.48182409	0.4561115	-0.014539274	-0.76061361	0.44453294	-0.012398557	-0.6571101	0.82159943	-0.19032388	-0.74517676	0.85370672	0.18076015	-0.62102636	0.92799802	-0.1179228	-0.6581648	0.93739048	0.12465393	-0.83440874	0.95084462	-0.030474645	-0.66689882	1.407109	-0.14644345	-0.69657322	1.3961987	0.17627729	-0.76351796	1.4336339	0.0029049417	-0.83364787	1.119103	-0.24889933	-0.72311009	1.0373094	0.21903532	-0.73138168	0.89063884	-0.25603804	-0.52812712	0.89454489	0.27019415
146	0.58	-0.33509836	0.068732703	-0.075197442	-0.75511894	0.03966393	0.032251214	-0.46693241	0.084835876	-0.10993729	-0.90128878	0.051239318	0.050462789	-0.464034	0.10961982	-0.028240163	-0.86783954	0.081193511	-0.027956454	-0.52916077	0.049416101	-0.068120792	-0.94315423	0.030070082	-0.0055784543	-0.48410269	0.47683442	-0.1340177	-0.78213501	0.43880094	0.1136663	-0.47713837	0.45447186	-0.014021159	-0.75845562	0.44404034	-0.012416991	-0.65131989	0.82079085	-0.18979901	-0.74043773	0.85276981	0.18021975	-0.61509842	0.92717195	-0.11732092	-0.65376485	0.93666661	0.12501669	-0.82919053	0.94976042	-0.030494375	-0.66232691	1.4062361	-0.14610819	-0.69201625	1.3952497	0.17657623	-0.75893584	1.4327211	0.0032083228	-0.8294141	1.1184776	-0.24848031	-0.71694745	1.0361228	0.21935139	-0.72769848	0.88971716	-0.25582405	-0.52012591	0.89526671	0.26940694
147	0.584	-0.32048145	0.067536288	-0.070283915	-0.7550672	0.039544547	0.03223198	-0.45196237	0.083316691	-0.10814655	-0.90109441	0.051335362	0.050388902	-0.45114101	0.10864938	-0.027050326	-0.86764436	0.081145544	-0.028103563	-0.5145526	0.048120642	-0.067296909	-0.94313719	0.030189409	-0.0056701749	-0.47895942	0.47496184	-0.13353875	-0.78006878	0.43825616	0.11363706	-0.47248006	0.45265702	-0.013500045	-0.75623521	0.44356874	-0.01245708	-0.6456528	0.81991695	-0.18927501	-0.73583899	0.8518716	0.17984261	-0.60914959	0.92629083	-0.11672642	-0.649346	0.93592883	0.12538461	-0.82505412	0.94808968	-0.030596568	-0.65777215	1.4053142	-0.14577504	-0.68745661	1.3942579	0.17686574	-0.75434794	1.4317616	0.0034986721	-0.82495582	1.1177909	-0.24799978	-0.710827	1.0349205	0.21968206	-0.72399568	0.88874875	-0.25562341	-0.51218055	0.89595912	0.26860265
